<?xml version="1.0" encoding="UTF-8"?>
<svg id="Layer_1" data-name="Layer 1" xmlns="http://www.w3.org/2000/svg" viewBox="0 0 200 200">
  <defs>
    <style>
      .cls-1 {
        fill: #58595b;
        font-family: BentonSans-Black, 'Benton Sans';
        font-size: 165.81px;
        font-weight: 800;
      }

      .cls-2 {
        fill: #5fcbff;
      }
    </style>
  </defs>
  <text class="cls-1" transform="translate(50.77 165.34)"><tspan x="0" y="0">N</tspan></text>
  <g>
    <path class="cls-2" d="M7.09,18.75s.78-1.81,1.67,0c0,0,10.29,14.89,30.48,25.1,0,0,27.64,11.49,45.67,16.59,0,0,23.72,6.59,30.58,29.14,0,0,4.12,5.44,3.14,27.93,0,0-8.04-21.54-29.01-27.71,0,0-6.08-3.19-16.66-5.74,0,0-38.42-8.51-52.14-25.52,0,0-13.13-13.61-13.72-35.31v-4.47Z"/>
    <path class="cls-2" d="M30.18,79.24s.44-1.38,1.21-.14c0,0,8.52,9.96,23.9,15.7,0,0,20.88,6.05,34.33,8.27,0,0,17.69,2.82,24.25,18.63,0,0,3.37,3.61,4.24,20.02,0,0-7.35-14.98-23.02-17.72,0,0-4.64-1.81-12.5-2.79,0,0-28.5-3-39.66-14.22,0,0-10.49-8.8-12.45-24.5l-.31-3.24Z"/>
    <path class="cls-2" d="M57.05,127.25s.25-.97.83-.15c0,0,6.25,6.45,17.06,9.68,0,0,14.6,3.18,23.94,4.08,0,0,12.27,1.11,17.42,11.67,0,0,2.46,2.33,3.71,13.57,0,0-5.65-9.96-16.53-11.11,0,0-3.26-1.03-8.71-1.33,0,0-19.71-.73-27.83-7.92,0,0-7.57-5.56-9.53-16.27l-.34-2.22Z"/>
  </g>
</svg>